<svg width="100" height="139" viewBox="0 0 100 139" fill="none" xmlns="http://www.w3.org/2000/svg">
<path fill-rule="evenodd" clip-rule="evenodd" d="M9.61538 0H65.3846L100 34.6154V128.846C100 134.157 95.695 138.462 90.3846 138.462H9.61538C4.30495 138.462 0 134.157 0 128.846V9.61538C0 4.30495 4.30495 0 9.61538 0Z" fill="#4285F4"/>
<path fill-rule="evenodd" clip-rule="evenodd" d="M0 126.923C0 132.234 4.30495 136.538 9.61538 136.538H90.3846C95.695 136.538 100 132.234 100 126.923V128.846C100 134.157 95.695 138.462 90.3846 138.462H9.61538C4.30495 138.462 0 134.157 0 128.846V126.923Z" fill="#1A237E" fill-opacity="0.2"/>
<path fill-rule="evenodd" clip-rule="evenodd" d="M9.61538 0H65.3846V1.92308H9.61538C4.30495 1.92308 0 6.22803 0 11.5385V9.61538C0 4.30495 4.30495 0 9.61538 0Z" fill="white" fill-opacity="0.2"/>
<path d="M67.3077 30.7693L100 63.4616V34.6154" fill="url(#paint0_linear_512_1545)"/>
<path fill-rule="evenodd" clip-rule="evenodd" d="M65.3846 0L100 34.6154H75C69.6896 34.6154 65.3846 30.3104 65.3846 25V0Z" fill="#A1C2FA"/>
<path fill-rule="evenodd" clip-rule="evenodd" d="M23.0769 61.5386H76.9231V69.2309H23.0769V61.5386ZM23.0769 76.9232H76.9231V84.6155H23.0769V76.9232ZM23.0769 92.3078H76.9231V100H23.0769V92.3078ZM23.0769 107.692H61.5384V115.385H23.0769V107.692Z" fill="#F1F1F1"/>
<path fill-rule="evenodd" clip-rule="evenodd" d="M9.61538 0H65.3846L100 34.6154V128.846C100 134.157 95.695 138.462 90.3846 138.462H9.61538C4.30495 138.462 0 134.157 0 128.846V9.61538C0 4.30495 4.30495 0 9.61538 0Z" fill="url(#paint1_radial_512_1545)" fill-opacity="0.1"/>
<defs>
<linearGradient id="paint0_linear_512_1545" x1="83.6555" y1="33.5762" x2="83.6555" y2="63.4662" gradientUnits="userSpaceOnUse">
<stop stop-color="#BF360C" stop-opacity="0.2"/>
<stop offset="1" stop-color="#BF360C" stop-opacity="0.02"/>
</linearGradient>
<radialGradient id="paint1_radial_512_1545" cx="0" cy="0" r="1" gradientUnits="userSpaceOnUse" gradientTransform="translate(3.168 2.74876) scale(161.248 161.247)">
<stop stop-color="white"/>
<stop offset="1" stop-color="white" stop-opacity="0"/>
</radialGradient>
</defs>
</svg>
