<svg width="100" height="100" viewBox="0 0 100 100" fill="none" xmlns="http://www.w3.org/2000/svg">
<path d="M11.1111 0H88.8889C95.0254 0 100 4.97461 100 11.1111V88.8889C100 95.0254 95.0254 100 88.8889 100H11.1111C4.97461 100 0 95.0254 0 88.8889V11.1111C0 4.97461 4.97461 0 11.1111 0ZM33.3333 55.5556C45.6063 55.5556 55.5556 45.6063 55.5556 33.3333C55.5556 21.0603 45.6063 11.1111 33.3333 11.1111C21.0603 11.1111 11.1111 21.0603 11.1111 33.3333C11.1111 45.6063 21.0603 55.5556 33.3333 55.5556ZM50 50V88.8889H88.8889V50H50Z" fill="#E94235"/>
</svg>
