<svg width="100" height="139" viewBox="0 0 100 139" fill="none" xmlns="http://www.w3.org/2000/svg">
<path fill-rule="evenodd" clip-rule="evenodd" d="M9.61538 0H65.3846L100 34.6154V128.846C100 134.157 95.695 138.462 90.3846 138.462H9.61538C4.30495 138.462 0 134.157 0 128.846V9.61538C0 4.30495 4.30495 0 9.61538 0Z" fill="#90A4AE"/>
<path fill-rule="evenodd" clip-rule="evenodd" d="M0 126.923C0 132.234 4.30495 136.538 9.61538 136.538H90.3846C95.695 136.538 100 132.234 100 126.923V128.846C100 134.157 95.695 138.462 90.3846 138.462H9.61538C4.30495 138.462 0 134.157 0 128.846V126.923Z" fill="black" fill-opacity="0.1"/>
<path fill-rule="evenodd" clip-rule="evenodd" d="M9.61538 0H65.3846V1.92308H9.61538C4.30495 1.92308 0 6.22803 0 11.5385V9.61538C0 4.30495 4.30495 0 9.61538 0Z" fill="white" fill-opacity="0.2"/>
<path d="M67.3077 30.7692L100 63.4615V34.6154" fill="url(#paint0_linear_512_1562)"/>
<path fill-rule="evenodd" clip-rule="evenodd" d="M65.3847 0L100 34.6154H75C69.6896 34.6154 65.3847 30.3104 65.3847 25V0ZM84.077 96.1538L61.4231 57.6923H41.1924L63.8462 96.1538H84.077ZM33.5 119.231H74L84.0385 100H43.4231L33.5 119.231ZM37.0385 63.2692L15.9231 101.731L26.1539 119.231L47.2308 80.8462L37.0385 63.2692V63.2692Z" fill="#F1F1F1"/>
<path fill-rule="evenodd" clip-rule="evenodd" d="M9.61538 0H65.3846L100 34.6154V128.846C100 134.157 95.695 138.462 90.3846 138.462H9.61538C4.30495 138.462 0 134.157 0 128.846V9.61538C0 4.30495 4.30495 0 9.61538 0Z" fill="url(#paint1_radial_512_1562)" fill-opacity="0.1"/>
<defs>
<linearGradient id="paint0_linear_512_1562" x1="83.6555" y1="33.5762" x2="83.6555" y2="63.4661" gradientUnits="userSpaceOnUse">
<stop stop-color="#BF360C" stop-opacity="0.2"/>
<stop offset="1" stop-color="#BF360C" stop-opacity="0.02"/>
</linearGradient>
<radialGradient id="paint1_radial_512_1562" cx="0" cy="0" r="1" gradientUnits="userSpaceOnUse" gradientTransform="translate(3.168 2.74876) scale(161.248 161.247)">
<stop stop-color="white"/>
<stop offset="1" stop-color="white" stop-opacity="0"/>
</radialGradient>
</defs>
</svg>
