<svg width="100" height="100" viewBox="0 0 100 100" fill="none" xmlns="http://www.w3.org/2000/svg">
<path d="M88.8889 0H11.1111C5 0 0 5 0 11.1111V88.8889C0 95 5 100 11.1111 100H88.8889C95 100 100 95 100 88.8889V11.1111C100 5 95 0 88.8889 0ZM33.3333 77.7778H22.2222V66.6667H33.3333V77.7778ZM33.3333 55.5556H22.2222V44.4444H33.3333V55.5556ZM33.3333 33.3333H22.2222V22.2222H33.3333V33.3333ZM77.7778 77.7778H38.8889V66.6667H77.7778V77.7778ZM77.7778 55.5556H38.8889V44.4444H77.7778V55.5556ZM77.7778 33.3333H38.8889V22.2222H77.7778V33.3333Z" fill="black"/>
</svg>
