<svg width="100" height="75" viewBox="0 0 100 75" fill="none" xmlns="http://www.w3.org/2000/svg">
<path d="M6.25 75H18.75V31.25L0 17.1875V68.75C0 72.1875 2.8125 75 6.25 75Z" fill="#4285F4"/>
<path d="M81.25 75H93.75C97.1875 75 100 72.1875 100 68.75V17.1875L81.25 31.25V75Z" fill="#34A853"/>
<path d="M50 31.25L18.75 6.25V31.25L50 56.25L81.25 31.25V6.25L50 31.25Z" fill="#EA4335"/>
<path d="M7.8125 0C3.5 0 0 3.5 0 7.8125V17.1875L18.75 31.25V6.25L12.5 1.5625C11.125 0.5625 9.5 0 7.8125 0Z" fill="#C5221F"/>
<path d="M87.5 1.5625L81.25 6.25V31.25L100 17.1875V7.8125C100 3.5 96.5 0 92.1875 0C90.5 0 88.875 0.5625 87.5 1.5625Z" fill="#FBBC04"/>
</svg>
