<svg width="100" height="100" viewBox="0 0 100 100" fill="none" xmlns="http://www.w3.org/2000/svg">
<path fill-rule="evenodd" clip-rule="evenodd" d="M50 0C22.3864 0 0 22.3864 0 50C0 77.6136 22.3864 100 50 100C77.6136 100 100 77.6136 100 50C100 22.3864 77.6136 0 50 0ZM50 84.0909C31.1705 84.0909 15.9091 68.8295 15.9091 50C15.9091 31.1705 31.1705 15.9091 50 15.9091C59.1932 15.9091 66.9034 19.2898 72.8068 24.7955L63.0341 34.5682C59.4943 31.1989 55.0057 29.4716 49.9943 29.4716C38.8693 29.4716 29.8523 38.8807 29.8523 50.0057C29.8523 61.1307 38.875 70.5341 50 70.5341C60.0966 70.5341 66.9773 64.7443 68.3693 56.8068H50V43.75H82.108C82.5057 45.9943 82.733 48.3352 82.733 50.7727C82.733 70.25 69.6875 84.0909 50 84.0909Z" fill="black"/>
</svg>
