<svg width="100" height="100" viewBox="0 0 100 100" fill="none" xmlns="http://www.w3.org/2000/svg">
<path d="M88.8889 0H11.1111C5 0 0 5 0 11.1111V88.8889C0 95 5 100 11.1111 100H88.8889C95 100 100 95 100 88.8889V11.1111C100 5 95 0 88.8889 0Z" fill="#5F6368"/>
<path d="M61.6667 55.5556C65 52.7778 66.6667 48.3334 66.6667 43.8889C66.6667 35.0001 59.4445 27.7778 50 27.7778C40.5556 27.7778 33.3333 35.0001 33.3333 43.8889C33.3333 48.3334 35 52.7778 38.3333 55.5556H61.6667V55.5556Z" fill="#5F6368"/>
<path d="M65.5555 61.1111C69.4444 57.2222 72.2222 51.1111 72.2222 44.9999C72.2222 32.2222 62.2222 22.2222 50 22.2222C37.7778 22.2222 27.7778 32.2222 27.7778 44.9999C27.7778 51.1111 30.5555 57.2222 34.4444 61.1111H65.5555ZM61.1111 66.6666H38.8889V77.7777H61.1111V66.6666Z" fill="white"/>
</svg>
