<svg width="100" height="144" viewBox="0 0 100 144" fill="none" xmlns="http://www.w3.org/2000/svg">
<path d="M64.5682 62.2161L85.1462 46.5401L94.283 26.8251C88.2005 15.2126 77.6949 6.27123 65.065 2.30542L46.0747 15.1312L35.301 37.6964C38.8026 33.4537 44.0551 30.7828 49.9591 30.7828C60.5615 30.7828 69.039 39.3577 69.039 49.8626C69.0311 54.5613 67.3367 58.8936 64.5682 62.2161V62.2161Z" fill="#4285F4"/>
<path d="M49.9509 0C34.56 0 20.9199 6.91371 11.7016 17.8828L20.4801 32.264L35.3011 37.7038C35.3906 37.6142 65.073 2.31272 65.073 2.31272C60.2765 0.830621 55.2034 0 49.9509 0Z" fill="#1A73E8"/>
<path d="M64.5689 62.2163C61.0671 66.3613 55.8552 69.0404 49.9513 69.0404C39.3486 69.0404 30.8714 60.4655 30.8714 49.9605C30.8714 45.441 32.7118 40.9296 35.2932 37.7048L13.4283 53.3401L4.97552 73.8288C10.228 85.2536 18.8925 94.4725 27.8339 105.995L51.2705 87.3469L64.5689 62.2163V62.2163Z" fill="#FBBC04"/>
<path d="M100 49.9597C100 41.572 97.8828 33.7381 94.2838 26.8245L27.8256 105.994C30.7735 109.772 33.6318 113.828 36.4901 118.25C46.6367 133.925 43.5911 143.323 50.0488 143.323C56.596 143.323 53.7378 133.925 63.8762 118.25C80.5534 92.1667 100 80.2773 100 49.9597V49.9597Z" fill="#34A853"/>
<path d="M35.3014 37.6951L11.702 17.8823C4.42184 26.5468 0 37.7928 0 49.959C0 59.3564 1.84043 67.0112 4.97562 73.8272L35.3014 37.6951Z" fill="#EA4335"/>
</svg>
