<svg width="100" height="80" viewBox="0 0 100 80" fill="none" xmlns="http://www.w3.org/2000/svg">
<path d="M79.1667 58.3333L75 53.1625V28.1982L79.1667 20.8757L95.4712 8.33333C97.9167 6.49041 100 8.06541 100 10.6781V69.4342C100 72.0471 97.2221 73.4537 95.4108 71.7792L79.1667 58.3333Z" fill="#00AC47"/>
<path d="M25 0L0 25H25V0Z" fill="#FE2C25"/>
<path d="M25 25H0V54.1667H25V25Z" fill="#2684FC"/>
<path d="M0 54.1667V70.8333C0 75.4167 3.75 79.1667 8.33337 79.1667H25V54.1667H0Z" fill="#0066DA"/>
<path d="M79.1667 8.32096C79.1667 3.74445 75.5104 0 71.0417 0H25V25H54.1667V41.6667L79.1667 40.9111V8.32096Z" fill="#FFBA00"/>
<path d="M54.1667 54.1667H25V79.1667H71.0417C75.5104 79.1667 79.1667 75.8017 79.1667 71.6888V41.6667L54.1667 39.5833V54.1667Z" fill="#00AC47"/>
<path d="M79.1667 20.8333V58.3333L54.1667 39.5833L79.1667 20.8333Z" fill="#00832D"/>
</svg>
