<svg width="100" height="100" viewBox="0 0 100 100" fill="none" xmlns="http://www.w3.org/2000/svg">
<path d="M88.8889 0H11.1111C4.97461 0 0 4.97461 0 11.1111V88.8889C0 95.0254 4.97461 100 11.1111 100H88.8889C95.0254 100 100 95.0254 100 88.8889V11.1111C100 4.97461 95.0254 0 88.8889 0Z" fill="#D93025"/>
<path fill-rule="evenodd" clip-rule="evenodd" d="M83.3333 44.4445V38.8889H66.6667V66.6667H72.2222V55.5556H77.7778V50H72.2222V44.4445H83.3333ZM50 61.1111V44.4445H52.7778C54.3111 44.4445 55.5556 45.6889 55.5556 47.2222V58.3334C55.5556 59.8667 54.3111 61.1111 52.7778 61.1111H50ZM52.7778 38.8889H44.4445V66.6667H52.7778C57.3778 66.6667 61.1111 62.9334 61.1111 58.3334V47.2222C61.1111 42.6222 57.3778 38.8889 52.7778 38.8889ZM27.7778 55.5556H33.3333C36.4056 55.5556 38.8889 53.0722 38.8889 50V44.4445C38.8889 41.3722 36.4056 38.8889 33.3333 38.8889H22.2222V66.6667H27.7778V55.5556ZM27.7778 50H33.3333V44.4445H27.7778V50Z" fill="white"/>
</svg>
