<svg width="100" height="100" viewBox="0 0 100 100" fill="none" xmlns="http://www.w3.org/2000/svg">
<path d="M93.4091 45.4545H72.3636C76.6818 40.6364 79.3636 34.2727 79.3636 27.2727C79.3636 12.2273 67.1364 0 52.0909 0C48.4091 0 45.4545 2.95455 45.4545 6.59091V27.6364C40.6364 23.3182 34.2727 20.6818 27.2727 20.6818C12.2273 20.6818 0 32.9091 0 47.9545C0 51.5909 2.95455 54.5455 6.63636 54.5455H27.6818C23.3636 59.3636 20.6818 65.7273 20.6818 72.7273C20.6818 87.7727 32.9091 100 47.9545 100C51.5909 100 54.5455 97.0455 54.5455 93.4091V72.3636C59.3636 76.6818 65.7273 79.3636 72.7273 79.3636C87.7727 79.3636 100 67.1364 100 52.0909C100 48.4091 97.0455 45.4545 93.4091 45.4545ZM54.5455 9.27273C63.4091 10.4545 70.2727 18.0909 70.2727 27.2727C70.2727 36.4545 63.4091 44.0909 54.5909 45.2727V9.27273H54.5455ZM27.2727 29.7727C36.4545 29.7727 44.0909 36.6364 45.2727 45.4545H9.27273C10.4545 36.5909 18.0909 29.7727 27.2727 29.7727ZM45.4545 90.7273C36.5909 89.5454 29.7727 81.9091 29.7727 72.7273C29.7727 63.5455 36.6364 55.9091 45.4545 54.7273V90.7273ZM72.7273 70.2273C63.5455 70.2273 55.9091 63.3636 54.7273 54.5455H90.7727C89.5455 63.4091 81.9091 70.2273 72.7273 70.2273Z" fill="black"/>
</svg>
