<svg width="100" height="100" viewBox="0 0 100 100" fill="none" xmlns="http://www.w3.org/2000/svg">
<path d="M25 22.2222C38.807 22.2222 50 33.6225 50 47.6852V50H2.27273C1.01755 50 0 48.9637 0 47.6852C0 33.6225 11.1929 22.2222 25 22.2222ZM77.7778 25C77.7778 38.807 66.3775 50 52.3148 50H50V2.27273C50 1.01755 51.0363 0 52.3148 0C66.3775 0 77.7778 11.1929 77.7778 25ZM75 77.7778C61.193 77.7778 50 66.3775 50 52.3148V50H97.7273C98.9825 50 100 51.0363 100 52.3148C100 66.3775 88.807 77.7778 75 77.7778ZM22.2222 75C22.2222 61.193 33.6225 50 47.6852 50H50V97.7273C50 98.9825 48.9637 100 47.6852 100C33.6225 100 22.2222 88.807 22.2222 75Z" fill="black"/>
</svg>
