<svg width="100" height="100" viewBox="0 0 100 100" fill="none" xmlns="http://www.w3.org/2000/svg">
<path d="M88.8889 0H11.1111C5 0 0 5 0 11.1111V88.8889C0 95 5 100 11.1111 100H88.8889C95 100 100 95 100 88.8889V11.1111C100 5 95 0 88.8889 0ZM37.7778 57.7778V77.7778H27.7778V22.2222H51.6667C60.1667 22.2222 63.6111 23.8889 67.2222 27.1667C70.8333 30.4444 72.2222 34.7778 72.2222 40.1667C72.2222 45.8333 70.7778 50.1667 67.2222 53.2222C63.6667 56.2778 60 57.7778 51.6667 57.7778H37.7778ZM37.7778 50V30H50.5556C54.2222 30 57.0556 31.3889 58.8889 33.3333C60.7222 35.2778 61.6667 37.3333 61.6667 40.2778C61.6667 43.3333 60.6667 45.5556 58.8889 47.2222C57.1111 48.9444 55 50 51.2222 50H37.7778Z" fill="#ED7C4F"/>
</svg>
