<svg width="100" height="139" viewBox="0 0 100 139" fill="none" xmlns="http://www.w3.org/2000/svg">
<path d="M13.4615 46.1538H88.4615V107.692H13.4615V46.1538Z" fill="white"/>
<path d="M65.3846 38.4615L92.3077 50.3846L100 34.6154L65.3846 0L55.7692 16.1538L65.3846 38.4615Z" fill="#188038"/>
<path d="M53.8461 80.7693H73.0769V92.3078H53.8461V80.7693ZM26.9231 61.5386H46.1538V73.077H26.9231V61.5386Z" fill="#34A853"/>
<path d="M65.3846 34.6154V0H11.5385C5 0 0 5 0 11.5385V126.923C0 133.462 5 138.462 11.5385 138.462H88.4615C95 138.462 100 133.462 100 126.923V34.6154H65.3846ZM80.7692 100H19.2308V53.8462H80.7692V100Z" fill="#34A853"/>
<path d="M26.9231 80.7693H46.1538V92.3078H26.9231V80.7693ZM53.8461 61.5386H73.0769V73.077H53.8461V61.5386Z" fill="#34A853"/>
</svg>
