<svg width="100" height="139" viewBox="0 0 100 139" fill="none" xmlns="http://www.w3.org/2000/svg">
<path fill-rule="evenodd" clip-rule="evenodd" d="M9.61538 0H65.3846L100 34.6154V128.846C100 134.157 95.695 138.462 90.3846 138.462H9.61538C4.30495 138.462 0 134.157 0 128.846V9.61538C0 4.30495 4.30495 0 9.61538 0Z" fill="#0F9D58"/>
<path fill-rule="evenodd" clip-rule="evenodd" d="M0 126.923C0 132.234 4.30495 136.538 9.61538 136.538H90.3846C95.695 136.538 100 132.234 100 126.923V128.846C100 134.157 95.695 138.462 90.3846 138.462H9.61538C4.30495 138.462 0 134.157 0 128.846V126.923Z" fill="#263238" fill-opacity="0.1"/>
<path fill-rule="evenodd" clip-rule="evenodd" d="M9.61538 0H65.3846V1.92308H9.61538C4.30495 1.92308 0 6.22803 0 11.5385V9.61538C0 4.30495 4.30495 0 9.61538 0Z" fill="white" fill-opacity="0.2"/>
<path d="M67.3077 30.7693L100 63.4616V34.6154" fill="url(#paint0_linear_512_1583)"/>
<path fill-rule="evenodd" clip-rule="evenodd" d="M65.3846 0L100 34.6154H75C69.6896 34.6154 65.3846 30.3104 65.3846 25V0Z" fill="#87CEAC"/>
<path fill-rule="evenodd" clip-rule="evenodd" d="M23.0769 61.5386H76.9231V115.385H23.0769V61.5386ZM30.7692 69.2309V76.9232H46.1539V69.2309H30.7692ZM30.7692 84.6155V92.3078H46.1539V84.6155H30.7692ZM30.7692 100V107.692H46.1539V100H30.7692ZM53.8462 69.2309V76.9232H69.2308V69.2309H53.8462ZM53.8462 84.6155V92.3078H69.2308V84.6155H53.8462ZM53.8462 100V107.692H69.2308V100H53.8462Z" fill="#F1F1F1"/>
<path fill-rule="evenodd" clip-rule="evenodd" d="M9.61538 0H65.3846L100 34.6154V128.846C100 134.157 95.695 138.462 90.3846 138.462H9.61538C4.30495 138.462 0 134.157 0 128.846V9.61538C0 4.30495 4.30495 0 9.61538 0Z" fill="url(#paint1_radial_512_1583)" fill-opacity="0.1"/>
<defs>
<linearGradient id="paint0_linear_512_1583" x1="83.6555" y1="33.5762" x2="83.6555" y2="63.4662" gradientUnits="userSpaceOnUse">
<stop stop-color="#BF360C" stop-opacity="0.2"/>
<stop offset="1" stop-color="#BF360C" stop-opacity="0.02"/>
</linearGradient>
<radialGradient id="paint1_radial_512_1583" cx="0" cy="0" r="1" gradientUnits="userSpaceOnUse" gradientTransform="translate(3.168 2.74876) scale(161.248 161.247)">
<stop stop-color="white"/>
<stop offset="1" stop-color="white" stop-opacity="0"/>
</radialGradient>
</defs>
</svg>
