<svg width="100" height="71" viewBox="0 0 100 71" fill="none" xmlns="http://www.w3.org/2000/svg">
<path d="M97.8863 10.9641C97.3253 8.81559 96.192 6.85944 94.6072 5.30399C93.0224 3.74855 91.0454 2.65205 88.8868 2.13127C75.9851 0.573243 62.9946 -0.131953 50 0.0202728C37.0054 -0.131953 24.015 0.573243 11.1132 2.13127C8.95456 2.65205 6.97758 3.74855 5.39278 5.30399C3.80799 6.85944 2.67474 8.81559 2.1137 10.9641C0.657188 18.8983 -0.0495926 26.9518 0.00270246 35.0184C-0.0495926 43.0849 0.657188 51.1385 2.1137 59.0726C2.67474 61.2212 3.80799 63.1773 5.39278 64.7328C6.97758 66.2882 8.95456 67.3847 11.1132 67.9055C24.015 69.4635 37.0054 70.1687 50 70.0165C62.9946 70.1687 75.9851 69.4635 88.8868 67.9055C91.0148 67.3583 92.9569 66.2501 94.5106 64.6964C96.0642 63.1428 97.1725 61.2006 97.7196 59.0726C99.2321 51.1438 99.9946 43.0902 99.9973 35.0184C100.05 26.9518 99.3428 18.8983 97.8863 10.9641V10.9641Z" fill="#FF0000"/>
<path d="M40.0006 50.0176L65.9992 35.0184L40.0006 20.0192V50.0176Z" fill="white"/>
</svg>
